<svg width="24" height="24" viewBox="0 0 24 24" fill="none" xmlns="http://www.w3.org/2000/svg">
<g id="Frame">
<path id="Subtract" fill-rule="evenodd" clip-rule="evenodd" d="M12 22C17.5228 22 22 17.5228 22 12C22 6.47715 17.5228 2 12 2C6.47715 2 2 6.47715 2 12C2 17.5228 6.47715 22 12 22ZM8 8C7.44772 8 7 8.44772 7 9C7 9.55228 7.44772 10 8 10H16C16.5523 10 17 9.55228 17 9C17 8.44772 16.5523 8 16 8H8ZM9.14285 11C8.59057 11 8.14285 11.4477 8.14285 12C8.14285 12.5523 8.59057 13 9.14285 13H14.8571C15.4094 13 15.8571 12.5523 15.8571 12C15.8571 11.4477 15.4094 11 14.8571 11H9.14285ZM10.2857 14C9.73344 14 9.28572 14.4477 9.28572 15C9.28572 15.5523 9.73344 16 10.2857 16H13.7143C14.2666 16 14.7143 15.5523 14.7143 15C14.7143 14.4477 14.2666 14 13.7143 14H10.2857Z" fill="black"/>
</g>
</svg>
