<svg width="40" height="41" viewBox="0 0 40 41" fill="none" xmlns="http://www.w3.org/2000/svg">
<g id="Icon/trash-x">
<path id="Vector" d="M6.66666 12.4167H33.3333" stroke="#B3261E" stroke-width="2.5" stroke-linecap="round" stroke-linejoin="round"/>
<path id="Vector_2" d="M8.33334 12.4167L10 32.4167C10 33.3007 10.3512 34.1486 10.9763 34.7737C11.6014 35.3988 12.4493 35.75 13.3333 35.75H26.6667C27.5507 35.75 28.3986 35.3988 29.0237 34.7737C29.6488 34.1486 30 33.3007 30 32.4167L31.6667 12.4167" stroke="#B3261E" stroke-width="2.5" stroke-linecap="round" stroke-linejoin="round"/>
<path id="Vector_3" d="M15 12.4167V7.41667C15 6.97464 15.1756 6.55072 15.4882 6.23816C15.8007 5.92559 16.2246 5.75 16.6667 5.75H23.3333C23.7754 5.75 24.1993 5.92559 24.5118 6.23816C24.8244 6.55072 25 6.97464 25 7.41667V12.4167" stroke="#B3261E" stroke-width="2.5" stroke-linecap="round" stroke-linejoin="round"/>
<path id="Vector_4" d="M16.6667 20.75L23.3333 27.4167M23.3333 20.75L16.6667 27.4167" stroke="#B3261E" stroke-width="2.5" stroke-linecap="round" stroke-linejoin="round"/>
</g>
</svg>
