<svg width="16" height="16" viewBox="0 0 16 16" fill="none" xmlns="http://www.w3.org/2000/svg">
<g id="Frame">
<path id="Vector" d="M3.88062 3.2733C6.47928 1.42997 10.1933 1.58063 12.5959 3.63063C15.0406 5.7153 15.3746 9.12263 13.3639 11.562C11.4693 13.86 8.05395 14.6173 5.20995 13.432L5.05528 13.3646L2.13862 13.9853L2.08862 13.994L2.01528 14L1.93995 13.9973L1.91062 13.994L1.83728 13.9806L1.76728 13.958L1.70062 13.9286L1.64995 13.9006L1.57795 13.8493L1.52395 13.8L1.47528 13.7446L1.43995 13.6946L1.39662 13.618L1.36862 13.5473L1.34795 13.472L1.33928 13.422L1.33328 13.3486L1.33595 13.2733L1.33928 13.244L1.35262 13.1706L1.36728 13.1226L2.13395 10.822L2.11928 10.798C0.645949 8.29997 1.31328 5.2033 3.72662 3.38597L3.87995 3.27397L3.88062 3.2733Z" fill="#ABABAB"/>
</g>
</svg>
