<svg width="24" height="24" viewBox="0 0 24 24" fill="none" xmlns="http://www.w3.org/2000/svg">
<path d="M8.00006 7C8.00006 8.06087 8.42149 9.07828 9.17163 9.82843C9.92178 10.5786 10.9392 11 12.0001 11C13.0609 11 14.0783 10.5786 14.8285 9.82843C15.5786 9.07828 16.0001 8.06087 16.0001 7C16.0001 5.93913 15.5786 4.92172 14.8285 4.17157C14.0783 3.42143 13.0609 3 12.0001 3C10.9392 3 9.92178 3.42143 9.17163 4.17157C8.42149 4.92172 8.00006 5.93913 8.00006 7Z" fill="black" stroke="black" stroke-width="1.5" stroke-linecap="round" stroke-linejoin="round"/>
<path d="M6.00006 21V19C6.00006 17.9391 6.42149 16.9217 7.17163 16.1716C7.92178 15.4214 8.9392 15 10.0001 15H14.0001C15.0609 15 16.0783 15.4214 16.8285 16.1716C17.5786 16.9217 18.0001 17.9391 18.0001 19V21" fill="black"/>
<path d="M6.00006 21V19C6.00006 17.9391 6.42149 16.9217 7.17163 16.1716C7.92178 15.4214 8.9392 15 10.0001 15H14.0001C15.0609 15 16.0783 15.4214 16.8285 16.1716C17.5786 16.9217 18.0001 17.9391 18.0001 19V21H6.00006Z" stroke="black" stroke-width="1.5" stroke-linecap="round" stroke-linejoin="round"/>
</svg>
