<svg width="64" height="65" viewBox="0 0 64 65" fill="none" xmlns="http://www.w3.org/2000/svg">
<path fill-rule="evenodd" clip-rule="evenodd" d="M46.1655 42.8918L55.2188 51.9478C56.2615 52.9904 56.2615 54.6758 55.2188 55.7184C54.6988 56.2384 54.0161 56.4998 53.3335 56.4998C52.6508 56.4998 51.9681 56.2384 51.4481 55.7184L42.3921 46.6651C38.7815 49.4731 34.2561 51.1664 29.3335 51.1664C17.5708 51.1664 8.00014 41.5958 8.00014 29.8331C8.00014 18.0704 17.5708 8.49977 29.3335 8.49977C41.0961 8.49977 50.6668 18.0704 50.6668 29.8331C50.6668 34.7558 48.9735 39.2811 46.1655 42.8918ZM29.3334 13.8337C20.5094 13.8337 13.3334 21.0097 13.3334 29.8337C13.3334 38.6577 20.5094 45.8337 29.3334 45.8337C38.1574 45.8337 45.3334 38.6577 45.3334 29.8337C45.3334 21.0097 38.1574 13.8337 29.3334 13.8337Z" fill="#474648"/>
<mask id="mask0_3839_86429" style="mask-type:luminance" maskUnits="userSpaceOnUse" x="8" y="8" width="49" height="49">
<path fill-rule="evenodd" clip-rule="evenodd" d="M46.1655 42.8918L55.2188 51.9478C56.2615 52.9904 56.2615 54.6758 55.2188 55.7184C54.6988 56.2384 54.0161 56.4998 53.3335 56.4998C52.6508 56.4998 51.9681 56.2384 51.4481 55.7184L42.3921 46.6651C38.7815 49.4731 34.2561 51.1664 29.3335 51.1664C17.5708 51.1664 8.00014 41.5958 8.00014 29.8331C8.00014 18.0704 17.5708 8.49977 29.3335 8.49977C41.0961 8.49977 50.6668 18.0704 50.6668 29.8331C50.6668 34.7558 48.9735 39.2811 46.1655 42.8918ZM29.3334 13.8337C20.5094 13.8337 13.3334 21.0097 13.3334 29.8337C13.3334 38.6577 20.5094 45.8337 29.3334 45.8337C38.1574 45.8337 45.3334 38.6577 45.3334 29.8337C45.3334 21.0097 38.1574 13.8337 29.3334 13.8337Z" fill="white"/>
</mask>
<g mask="url(#mask0_3839_86429)">
</g>
</svg>
