<svg width="11" height="12" viewBox="0 0 11 12" fill="none" xmlns="http://www.w3.org/2000/svg">
<path d="M5.50033 1.93335C6.27366 1.93335 6.90033 2.56002 6.90033 3.33335C6.90033 4.10669 6.27366 4.73335 5.50033 4.73335C4.72699 4.73335 4.10033 4.10669 4.10033 3.33335C4.10033 2.56002 4.72699 1.93335 5.50033 1.93335ZM5.50033 7.93335C7.48033 7.93335 9.56699 8.90669 9.56699 9.33335V10.0667H1.43366V9.33335C1.43366 8.90669 3.52033 7.93335 5.50033 7.93335ZM5.50033 0.666687C4.02699 0.666687 2.83366 1.86002 2.83366 3.33335C2.83366 4.80669 4.02699 6.00002 5.50033 6.00002C6.97366 6.00002 8.16699 4.80669 8.16699 3.33335C8.16699 1.86002 6.97366 0.666687 5.50033 0.666687ZM5.50033 6.66669C3.72033 6.66669 0.166992 7.56002 0.166992 9.33335V11.3334H10.8337V9.33335C10.8337 7.56002 7.28033 6.66669 5.50033 6.66669Z" fill="#828282"/>
</svg>
