<svg width="12" height="14" viewBox="0 0 12 14" fill="none" xmlns="http://www.w3.org/2000/svg">
<path d="M2.33203 3.66667C2.33203 4.37391 2.61298 5.05219 3.11308 5.55228C3.61318 6.05238 4.29145 6.33333 4.9987 6.33333C5.70594 6.33333 6.38422 6.05238 6.88432 5.55228C7.38441 5.05219 7.66536 4.37391 7.66536 3.66667C7.66536 2.95942 7.38441 2.28115 6.88432 1.78105C6.38422 1.28095 5.70594 1 4.9987 1C4.29145 1 3.61318 1.28095 3.11308 1.78105C2.61298 2.28115 2.33203 2.95942 2.33203 3.66667Z" stroke="black" stroke-width="1.6" stroke-linecap="round" stroke-linejoin="round"/>
<path d="M1 13V11.6667C1 10.9594 1.28095 10.2811 1.78105 9.78105C2.28115 9.28095 2.95942 9 3.66667 9H6.33333" stroke="black" stroke-width="1.6" stroke-linecap="round" stroke-linejoin="round"/>
<path d="M7 11.6668L8.33333 13.0002L11 10.3335" stroke="black" stroke-width="1.6" stroke-linecap="round" stroke-linejoin="round"/>
</svg>
