<svg width="16" height="16" viewBox="0 0 16 16" fill="none" xmlns="http://www.w3.org/2000/svg">
<path fill-rule="evenodd" clip-rule="evenodd" d="M7.37554 2.17259C7.37533 1.87718 7.61204 1.6514 7.90424 1.66829C8.19644 1.68517 8.43349 1.93834 8.4337 2.23375L8.4366 7.44627L13.7493 7.44923C14.0447 7.44943 14.2979 7.68648 14.3148 7.97868C14.3316 8.27088 14.1059 8.50759 13.8105 8.50738L8.43719 8.50439L8.44019 13.8774C8.4404 14.1728 8.20369 14.3986 7.91149 14.3817C7.61928 14.3648 7.38224 14.1117 7.38203 13.8163L7.37907 8.5038L2.16678 8.50089C1.87137 8.50068 1.61821 8.26364 1.60132 7.97144C1.58443 7.67924 1.81022 7.44253 2.10563 7.44274L7.37848 7.44568L7.37554 2.17259Z" fill="white"/>
<path d="M7.90424 1.66829L7.91217 1.53121L7.91217 1.53121L7.90424 1.66829ZM7.37554 2.17259L7.51284 2.17252L7.51284 2.1725L7.37554 2.17259ZM8.4337 2.23375L8.571 2.23367L8.571 2.23365L8.4337 2.23375ZM8.4366 7.44627L8.2993 7.44634L8.29938 7.58349L8.43653 7.58357L8.4366 7.44627ZM13.7493 7.44923L13.7494 7.31193H13.7494L13.7493 7.44923ZM14.3148 7.97868L14.1777 7.9866L14.3148 7.97868ZM13.8105 8.50738L13.8105 8.37008H13.8105L13.8105 8.50738ZM8.43719 8.50439L8.43727 8.36709L8.29981 8.36701L8.29989 8.50446L8.43719 8.50439ZM8.44019 13.8774L8.30289 13.8775L8.30289 13.8775L8.44019 13.8774ZM7.91149 14.3817L7.90356 14.5188L7.90356 14.5188L7.91149 14.3817ZM7.38203 13.8163L7.24473 13.8163L7.24473 13.8164L7.38203 13.8163ZM7.37907 8.5038L7.51637 8.50372L7.5163 8.36657L7.37915 8.3665L7.37907 8.5038ZM2.16678 8.50089L2.16669 8.63819L2.16671 8.63819L2.16678 8.50089ZM1.60132 7.97144L1.46425 7.97936L1.60132 7.97144ZM2.10563 7.44274L2.10553 7.58004L2.10555 7.58004L2.10563 7.44274ZM7.37848 7.44568L7.3784 7.58298L7.51586 7.58305L7.51578 7.4456L7.37848 7.44568ZM7.91217 1.53121C7.53981 1.50969 7.23798 1.79961 7.23824 2.17269L7.51284 2.1725C7.51269 1.95476 7.68427 1.7931 7.89632 1.80536L7.91217 1.53121ZM8.571 2.23365C8.57074 1.86663 8.27805 1.55236 7.91217 1.53121L7.89632 1.80536C8.11484 1.81799 8.29624 2.01005 8.2964 2.23385L8.571 2.23365ZM8.5739 7.44619L8.571 2.23367L8.2964 2.23383L8.2993 7.44634L8.5739 7.44619ZM8.43653 7.58357L13.7492 7.58653L13.7494 7.31193L8.43668 7.30896L8.43653 7.58357ZM13.7492 7.58653C13.973 7.58668 14.1651 7.76809 14.1777 7.9866L14.4518 7.97076C14.4307 7.60487 14.1164 7.31218 13.7494 7.31193L13.7492 7.58653ZM14.1777 7.9866C14.1899 8.19865 14.0283 8.37023 13.8105 8.37008L13.8104 8.64468C14.1834 8.64494 14.4734 8.34311 14.4518 7.97076L14.1777 7.9866ZM13.8105 8.37008L8.43727 8.36709L8.43712 8.64169L13.8104 8.64468L13.8105 8.37008ZM8.57749 13.8773L8.57449 8.50431L8.29989 8.50446L8.30289 13.8775L8.57749 13.8773ZM7.90356 14.5188C8.27592 14.5403 8.57775 14.2504 8.57749 13.8773L8.30289 13.8775C8.30304 14.0953 8.13146 14.2569 7.91941 14.2447L7.90356 14.5188ZM7.24473 13.8164C7.24499 14.1834 7.53768 14.4977 7.90356 14.5188L7.91941 14.2447C7.70089 14.232 7.51949 14.04 7.51933 13.8162L7.24473 13.8164ZM7.24177 8.50387L7.24473 13.8163L7.51933 13.8162L7.51637 8.50372L7.24177 8.50387ZM7.37915 8.3665L2.16686 8.36359L2.16671 8.63819L7.37899 8.6411L7.37915 8.3665ZM2.16688 8.36359C1.94308 8.36343 1.75102 8.18203 1.73839 7.96352L1.46425 7.97936C1.48539 8.34525 1.79966 8.63793 2.16669 8.63819L2.16688 8.36359ZM1.73839 7.96352C1.72614 7.75147 1.88779 7.57988 2.10553 7.58004L2.10572 7.30543C1.73264 7.30517 1.44273 7.607 1.46425 7.97936L1.73839 7.96352ZM2.10555 7.58004L7.3784 7.58298L7.37856 7.30837L2.1057 7.30543L2.10555 7.58004ZM7.23824 2.17267L7.24118 7.44575L7.51578 7.4456L7.51284 2.17252L7.23824 2.17267Z" fill="white"/>
</svg>
