<svg width="24" height="24" viewBox="0 0 24 24" fill="none" xmlns="http://www.w3.org/2000/svg">
<path d="M21.9996 2.7821C21.9998 2.76838 21.9996 2.75495 21.9992 2.74123C21.9983 2.70783 21.9947 2.67458 21.9897 2.64178C21.9877 2.63034 21.9868 2.61921 21.9847 2.60838C21.976 2.56659 21.9636 2.52526 21.9482 2.4853C21.9438 2.47416 21.9382 2.46349 21.9334 2.45251C21.9197 2.42185 21.9042 2.39241 21.8866 2.36359C21.8794 2.35185 21.8721 2.34025 21.864 2.32882C21.8383 2.29145 21.81 2.2553 21.7773 2.22251C21.7445 2.18972 21.7082 2.1615 21.6708 2.13542C21.6594 2.12779 21.6481 2.12078 21.6366 2.11361C21.6073 2.09546 21.5772 2.07975 21.5459 2.06571C21.5354 2.06114 21.5253 2.05565 21.5148 2.05168C21.4744 2.03597 21.4327 2.02347 21.3906 2.01477C21.3804 2.01264 21.3699 2.01172 21.3595 2.0102C21.3256 2.00471 21.2915 2.0015 21.257 2.00028C21.2439 2.00013 21.2312 1.99983 21.2181 2.00013C21.1814 2.00105 21.1449 2.00455 21.1083 2.01065C21.1007 2.01203 21.0931 2.01233 21.0856 2.01401C21.0479 2.02148 21.0109 2.03155 20.9741 2.04512L2.50332 8.77494C2.20088 8.88522 1.99973 9.17242 2 9.49439C2.00015 9.81621 2.20178 10.1036 2.50422 10.2134L10.7824 13.2174L13.7864 21.4958C13.8962 21.7982 14.1834 21.9997 14.5054 22H14.5059C14.8275 22 15.1149 21.7988 15.2248 21.4967L21.9553 3.02559C21.9686 2.98913 21.9785 2.95192 21.9864 2.91455C21.9881 2.90631 21.9884 2.89793 21.9899 2.88969C21.9956 2.854 21.9992 2.81831 22 2.78247L21.9996 2.7821ZM18.2523 4.66498L11.1833 11.7341L5.00485 9.49205L18.2523 4.66498ZM14.5073 18.9945L12.2653 12.816L19.3343 5.74692L14.5073 18.9945Z" fill="#1C1B1F"/>
</svg>
