<svg width="24" height="24" viewBox="0 0 24 24" fill="none" xmlns="http://www.w3.org/2000/svg">
<path d="M4 17C3.44772 17 3 17.4477 3 18C3 18.5523 3.44772 19 4 19H9V17H4ZM4 5C3.44772 5 3 5.44772 3 6C3 6.55228 3.44772 7 4 7H13V5H4ZM20 13C20.5523 13 21 12.5523 21 12C21 11.4477 20.5523 11 20 11H11V13H20Z" fill="#1C1B1F"/>
<path d="M13 5V7H17H20C20.5523 7 21 6.55228 21 6C21 5.44772 20.5523 5 20 5H17H13Z" fill="#1C1B1F"/>
<path d="M7 11H4C3.44772 11 3 11.4477 3 12C3 12.5523 3.44772 13 4 13H7H11V11H7Z" fill="#1C1B1F"/>
<path d="M9 17V19H13H20C20.5523 19 21 18.5523 21 18C21 17.4477 20.5523 17 20 17H13H9Z" fill="#1C1B1F"/>
</svg>
