<svg width="16" height="16" viewBox="0 0 16 16" fill="none" xmlns="http://www.w3.org/2000/svg">
<path d="M8.00008 3.93341C8.77342 3.93341 9.40008 4.56008 9.40008 5.33341C9.40008 6.10675 8.77342 6.73342 8.00008 6.73342C7.22675 6.73342 6.60008 6.10675 6.60008 5.33341C6.60008 4.56008 7.22675 3.93341 8.00008 3.93341ZM8.00008 9.93341C9.98008 9.93341 12.0667 10.9067 12.0667 11.3334V12.0667H3.93341V11.3334C3.93341 10.9067 6.02008 9.93341 8.00008 9.93341ZM8.00008 2.66675C6.52675 2.66675 5.33341 3.86008 5.33341 5.33341C5.33341 6.80675 6.52675 8.00008 8.00008 8.00008C9.47341 8.00008 10.6667 6.80675 10.6667 5.33341C10.6667 3.86008 9.47341 2.66675 8.00008 2.66675ZM8.00008 8.66675C6.22008 8.66675 2.66675 9.56008 2.66675 11.3334V13.3334H13.3334V11.3334C13.3334 9.56008 9.78008 8.66675 8.00008 8.66675Z" fill="#1C1B1F"/>
</svg>
