<svg width="14" height="14" viewBox="0 0 14 14" fill="none" xmlns="http://www.w3.org/2000/svg">
<path d="M10.3334 1.22676C11.3389 1.80733 12.1753 2.64044 12.7599 3.64362C13.3445 4.64681 13.6569 5.78527 13.6663 6.94632C13.6757 8.10736 13.3817 9.25073 12.8134 10.2632C12.2451 11.2757 11.4222 12.1222 10.4262 12.719C9.4302 13.3157 8.29562 13.642 7.13477 13.6655C5.97393 13.689 4.82707 13.4089 3.80774 12.8529C2.78841 12.297 1.93195 11.4844 1.32315 10.4958C0.714349 9.5071 0.374314 8.37656 0.336707 7.21609L0.333374 7.00009L0.336707 6.78409C0.374043 5.63275 0.709073 4.51073 1.30913 3.52742C1.90919 2.54411 2.75381 1.73306 3.76064 1.17335C4.76746 0.613633 5.90214 0.324356 7.05404 0.333716C8.20595 0.343077 9.33578 0.650756 10.3334 1.22676ZM9.47137 5.19542C9.35658 5.08064 9.20385 5.01169 9.04183 5.0015C8.87981 4.99131 8.71964 5.04059 8.59137 5.14009L8.52871 5.19542L6.33337 7.39009L5.47137 6.52876L5.40871 6.47342C5.28043 6.37399 5.12029 6.32477 4.95831 6.33499C4.79633 6.34521 4.64365 6.41417 4.52888 6.52893C4.41412 6.6437 4.34516 6.79638 4.33494 6.95836C4.32472 7.12034 4.37394 7.28048 4.47337 7.40876L4.52871 7.47142L5.86204 8.80476L5.92471 8.86009C6.04162 8.9508 6.1854 9.00004 6.33337 9.00004C6.48135 9.00004 6.62512 8.9508 6.74204 8.86009L6.80471 8.80476L9.47137 6.13809L9.52671 6.07542C9.62621 5.94715 9.67549 5.78699 9.6653 5.62497C9.65511 5.46295 9.58616 5.31022 9.47137 5.19542Z" fill="black"/>
</svg>
