<svg width="16" height="14" viewBox="0 0 16 14" fill="none" xmlns="http://www.w3.org/2000/svg">
<path d="M2.88334 8.75065L0.666672 6.53398L1.25001 5.95065L2.48334 7.18398C2.42778 6.87287 2.38334 6.55898 2.35001 6.24232C2.31667 5.92565 2.3 5.57843 2.3 5.20065C2.3 4.26918 2.44445 3.39187 2.73334 2.56872C3.02223 1.74556 3.43334 1.00065 3.96667 0.333984L4.56667 0.917318C4.11062 1.52057 3.75771 2.18528 3.50796 2.91143C3.25821 3.63758 3.13334 4.40065 3.13334 5.20065C3.13334 5.53028 3.14723 5.85991 3.175 6.18953C3.20278 6.51917 3.24445 6.8451 3.3 7.16732L4.51667 5.95065L5.1 6.53398L2.88334 8.75065ZM9.9 13.5673L5.36667 11.8173L5.83334 10.5507C5.91112 10.3507 6.02223 10.1757 6.16667 10.0257C6.31112 9.87565 6.48889 9.77843 6.7 9.73398L8.01667 9.46732L5.8 4.51732C5.61112 4.0951 5.6 3.6701 5.76667 3.24232C5.93334 2.81454 6.22778 2.50621 6.65 2.31732C7.07223 2.12843 7.49723 2.11454 7.925 2.27565C8.35278 2.43676 8.66112 2.72843 8.85 3.15065L10.0167 5.76732L10.4167 5.60065C10.4611 5.57843 10.5111 5.56732 10.5667 5.56732H10.7333L13.4667 5.66732C13.7556 5.67843 14.0111 5.77843 14.2333 5.96732C14.4556 6.15621 14.6056 6.3951 14.6833 6.68398L15.6167 10.2507C15.7056 10.5729 15.675 10.8784 15.525 11.1673C15.375 11.4562 15.15 11.6673 14.85 11.8007L10.95 13.534C10.7833 13.6118 10.6083 13.6534 10.425 13.659C10.2417 13.6645 10.0667 13.634 9.9 13.5673ZM10.4167 12.6673L14.7 10.7673L13.6667 6.68398L10.2667 6.53398L9.43334 6.91732L7.93334 3.56732C7.84445 3.37843 7.72223 3.25065 7.56667 3.18398C7.41112 3.11732 7.23889 3.12843 7.05 3.21732C6.86112 3.30621 6.73612 3.42843 6.675 3.58398C6.61389 3.73954 6.62778 3.91176 6.71667 4.10065L9.41667 10.184L6.85 10.7173L6.66667 11.234L10.4167 12.6673Z" fill="#766D81"/>
</svg>
