<svg width="24" height="24" viewBox="0 0 24 24" fill="none" xmlns="http://www.w3.org/2000/svg">
<g clip-path="url(#clip0_15488_45001)">
<path d="M14.2351 19C15.1001 19 15.5571 20.024 14.9801 20.668C14.6052 21.0875 14.146 21.4229 13.6324 21.6525C13.1189 21.8821 12.5626 22.0005 12.0001 22C11.4375 22.0005 10.8813 21.8821 10.3677 21.6525C9.85414 21.4229 9.39489 21.0875 9.02006 20.668C8.46806 20.052 8.86206 19.089 9.65406 19.007L9.76406 19.001L14.2351 19Z" fill="black"/>
<path d="M12.0001 2C13.3581 2 14.5061 2.903 14.8751 4.141L14.9211 4.312L14.9291 4.355C16.0315 4.9769 16.9708 5.8511 17.6703 6.906C18.3697 7.9609 18.8093 9.16648 18.9531 10.424L18.9811 10.711L19.0001 11V13.931L19.0211 14.067C19.158 14.8038 19.5657 15.4627 20.1641 15.914L20.3311 16.031L20.4931 16.13C21.3531 16.617 21.0531 17.896 20.1161 17.994L20.0001 18H4.00007C2.97207 18 2.61307 16.636 3.50707 16.13C3.8881 15.9144 4.21732 15.618 4.47161 15.2616C4.7259 14.9052 4.89911 14.4974 4.97907 14.067L5.00007 13.924L5.00107 10.954C5.06204 9.64788 5.44223 8.37661 6.10835 7.25147C6.77448 6.12632 7.70624 5.18161 8.82207 4.5L9.07007 4.354L9.08007 4.311C9.22152 3.71303 9.54302 3.17284 10.0012 2.76334C10.4593 2.35384 11.032 2.09473 11.6421 2.021L11.8241 2.004L12.0001 2Z" fill="black"/>
</g>
<defs>
<clipPath id="clip0_15488_45001">
<rect width="24" height="24" fill="white"/>
</clipPath>
</defs>
</svg>
